
 
http://old.rapidimg.org/images/LQRB7.jpg


IMDB:  http://www.imdb.com/title/tt2150369/

 PLOT INFO:
 Sixteen-year-old Melissa Kennedy's been missing for almost 3 months now and the Town of Ridgedale is coming unhinged...

 Media Info:
 General
 Complete name : Love.Me.2012.BDRiP.AC3-5.1.XviD-AXED.avi
 Format : AVI
 Format/Info : Audio Video Interleave
 File size : 1.37 GiB
 Duration : 1h 37mn
 Overall bit rate : 2 006 Kbps

 Video
 ID : 0
 Format : MPEG-4 Visual
 Format profile : Advanced Simple@L5
 Format settings, BVOP : 1
 Format settings, QPel : No
 Format settings, GMC : No warppoints
 Format settings, Matrix : Default (H.263)
 Codec ID : XVID
 Codec ID/Hint : XviD
 Duration : 1h 37mn
 Bit rate : 1 615 Kbps
 Width : 720 pixels
 Height : 400 pixels
 Display aspect ratio : 16:9
 Frame rate : 23.976 fps
 Color space : YUV
 Chroma subsampling : 4:2:0
 Bit depth : 8 bits
 Scan type : Progressive
 Compression mode : Lossy
 Bits/(Pixel*Frame) : 0.234
 Stream size : 1.10 GiB (80%)
 Writing library : XviD 1.2.1 (UTC 2008-12-04)

 Audio
 ID : 1
 Format : AC-3
 Format/Info : Audio Coding 3
 Mode extension : CM (complete main)
 Format settings, Endianness : Big
 Codec ID : 2000
 Duration : 1h 37mn
 Bit rate mode : Constant
 Bit rate : 384 Kbps
 Channel(s) : 6 channels
 Channel positions : Front: L C R, Side: L R, LFE
 Sampling rate : 48.0 KHz
 Bit depth : 16 bits
 Compression mode : Lossy
 Stream size : 268 MiB (19%)
 Alignment : Aligned on interleaves
 Interleave, duration : 64 ms (1.53 video frames)
 Interleave, preload duration : 192 ms
 Title : 00001.dga PID 1100 3_2ch 48KHz 640Kbps DELAY 0ms_new


 SOURCE:
 RA Retail Bluray Disc

 NOTES:
 Enjoy!

 AXED! We do this better.

 
http://leetleech.org/images/06673054743059217005.png 
http://leetleech.org/images/76752211931089780434.png

